STARTFONT 2.1
FONT HAN-GB2312
SIZE 16 72 72
FONTBOUNDINGBOX 7 16 0 0
STARTPROPERTIES 1
BITCOUNT 8
ENDPROPERTIES
CHARS 27
STARTCHAR  00A4
ENCODING  164
SWIDTH  1000 0
DWIDTH  10 0
BBX  9 9 1 1
BITMAP
001000000000001000
60F040608030A0E010
30F0FFFFFFFFFFA000
00A0F04010A0FF6000
00F0A0000010FF8000
00E0E0000040FF6000
00C0FFC0A0F0FF4000
80FFA0E0F0A0E0F010
106000000000206000
ENDCHAR
STARTCHAR  00A7
ENCODING  167
SWIDTH  1000 0
DWIDTH  7 0
BBX  5 11 1 0
BITMAP
40E0FFE030
E0FFA0E0E0
F0F0104080
60FFF08000
E0E0A0FFA0
FFA00060FF
A0FFC0C0E0
0060E0FF80
804010E0F0
E0F0A0F0F0
30E0FFE040
ENDCHAR
STARTCHAR  00A8
ENCODING  168
SWIDTH  1000 0
DWIDTH  7 0
BBX  5 14 1 0
BITMAP
60A000A060
A0FF00FFA0
0000000000
FFFFFFFFFF
FFE0A0A0A0
FFA0000000
FFA0000000
FFE0A0A040
FFFFFFFF80
FFA0000000
FFA0000000
FFA0000000
FFE0A0A0A0
FFFFFFFFFF
ENDCHAR
STARTCHAR  00B0
ENCODING  176
SWIDTH  1000 0
DWIDTH  6 0
BBX  4 6 1 5
BITMAP
30E0E030
C0F0F0C0
FFA0A0FF
F0C0C0F0
A0FFFFA0
00806000
ENDCHAR
STARTCHAR  00B1
ENCODING  177
SWIDTH  1000 0
DWIDTH  8 0
BBX  6 8 1 0
BITMAP
0000A0FF0000
0000A0FF0000
A0A0E0FFA0A0
FFFFFFFFFFFF
0000A0FF0000
0000A0FF0000
A0A0A0A0A0A0
FFFFFFFFFFFF
ENDCHAR
STARTCHAR  00B7
ENCODING  183
SWIDTH  1000 0
DWIDTH  6 0
BBX  3 3 2 4
BITMAP
101000
E0F010
C0E010
ENDCHAR
STARTCHAR  00D7
ENCODING  215
SWIDTH  1000 0
DWIDTH  7 0
BBX  5 11 1 0
BITMAP
FFA000A0FF
FFA000A0FF
FFA000A0FF
FFA000A0FF
FFC010A0FF
C0FFFFFFFF
108080C0FF
000000A0FF
000000A0FF
000000A0FF
000000A0FF
ENDCHAR
STARTCHAR  00E0
ENCODING  224
SWIDTH  1000 0
DWIDTH  6 0
BBX  6 8 0 0
BITMAP
0080F0F0A000
40FFE0C0FF60
20401000FFA0
10A0FFFFFFA0
60FFE0A0FFA0
80FF6000FFA0
60FFC080FFA0
10E0FFA0FFA0
ENDCHAR
STARTCHAR  00E1
ENCODING  225
SWIDTH  1000 0
DWIDTH  7 0
BBX  5 11 1 0
BITMAP
000010C0E0
10A0F0FF80
A0E0602000
F0A0E0F060
FFF0A0F0F0
FFA000A0FF
FFA000A0FF
FFA000A0FF
FFA000A0FF
E0F0A0F0E0
40E0FFE030
ENDCHAR
STARTCHAR  00E8
ENCODING  232
SWIDTH  1000 0
DWIDTH  7 0
BBX  5 8 1 0
BITMAP
FFA000A0FF
FFA000E0FF
FFA060FFFF
FFA0E0F0FF
FFF0E0A0FF
FFFF60A0FF
FFE000A0FF
FFA000A0FF
ENDCHAR
STARTCHAR  00E9
ENCODING  233
SWIDTH  1000 0
DWIDTH  7 0
BBX  5 11 1 0
BITMAP
40FFA0FF30
00C0FFC000
0000000000
FFA000A0FF
FFA000E0FF
FFA060FFFF
FFA0E0F0FF
FFF0E0A0FF
FFFF60A0FF
FFE000A0FF
FFA000A0FF
ENDCHAR
STARTCHAR  00EA
ENCODING  234
SWIDTH  1000 0
DWIDTH  7 0
BBX  6 8 1 0
BITMAP
FFA00080FF30
FFA000F0E020
FFA040FF6000
FFFFFFFF2000
FFE0C0F00000
FFA040FF6000
FFA000E0A000
FFA00080FF10
ENDCHAR
STARTCHAR  00EC
ENCODING  236
SWIDTH  1000 0
DWIDTH  8 0
BBX  7 8 1 0
BITMAP
FFC0000030FFA0
FFFF200080FFA0
FFFF8000F0FFA0
FFF0E060F0FFA0
FFA0F0E0A0FFA0
FFA0A0FF30FFA0
FFA030A000FFA0
FFA0000000FFA0
ENDCHAR
STARTCHAR  00ED
ENCODING  237
SWIDTH  1000 0
DWIDTH  7 0
BBX  5 8 1 0
BITMAP
FFA000A0FF
FFA000A0FF
FFA000A0FF
FFE0A0E0FF
FFFFFFFFFF
FFA000A0FF
FFA000A0FF
FFA000A0FF
ENDCHAR
STARTCHAR  00F2
ENCODING  242
SWIDTH  1000 0
DWIDTH  7 0
BBX  5 8 1 0
BITMAP
FFFFFFFFFF
A0E0FFA0A0
00A0FF0000
00A0FF0000
00A0FF0000
00A0FF0000
00A0FF0000
00A0FF0000
ENDCHAR
STARTCHAR  00F3
ENCODING  243
SWIDTH  1000 0
DWIDTH  6 0
BBX  6 11 0 -3
BITMAP
A0FF2000C0E0
40FF6000F0A0
00F0A030FF60
00A0F060FF10
0060FFE0E000
0010F0FFA000
0000C0FF6000
000080FF2000
0000A0E00000
0080FFA00000
00FFE0200000
ENDCHAR
STARTCHAR  00F7
ENCODING  247
SWIDTH  1000 0
DWIDTH  6 0
BBX  5 8 1 0
BITMAP
FFA000FFA0
FFA000FFA0
FFA000FFA0
FFC020FFA0
C0FFFFFFA0
104030FFA0
000000FFA0
000000FFA0
ENDCHAR
STARTCHAR  00F9
ENCODING  249
SWIDTH  1000 0
DWIDTH  10 0
BBX  9 10 1 -2
BITMAP
FFA000FFA000A0FF00
FFA000FFA000A0FF00
FFA000FFA000A0FF00
FFA000FFA000A0FF00
FFA000FFA000A0FF00
FFA000FFA000A0FF00
FFC060FFC060C0FF60
FFFFFFFFFFFFFFFFFF
00000000000000A0FF
0000000000000060A0
ENDCHAR
STARTCHAR  00FA
ENCODING  250
SWIDTH  1000 0
DWIDTH  8 0
BBX  7 8 0 0
BITMAP
80FFFFA0000000
40A0FFA0000000
0000FFA0000000
0000FFFFFFE040
0000FFE0A0F0E0
0000FFA000A0FF
0000FFE0A0F0F0
0000FFFFFFE040
ENDCHAR
STARTCHAR  00FC
ENCODING  252
SWIDTH  1000 0
DWIDTH  7 0
BBX  5 8 1 0
BITMAP
FFA0000000
FFA0000000
FFA0000000
FFFFFFE040
FFE0A0F0F0
FFA000A0FF
FFC080E0F0
FFFFFFE060
ENDCHAR
STARTCHAR  2014
ENCODING  8212
SWIDTH  1000 0
DWIDTH  10 0
BBX  10 2 0 4
BITMAP
40A0A0A0A0A0A0A0A060
80FFFFFFFFFFFFFFFFC0
ENDCHAR
STARTCHAR  2018
ENCODING  8216
SWIDTH  1000 0
DWIDTH  3 0
BBX  2 4 1 8
BITMAP
0010
4080
F0A0
FFA0
ENDCHAR
STARTCHAR  2019
ENCODING  8217
SWIDTH  1000 0
DWIDTH  4 0
BBX  2 4 1 7
BITMAP
FFA0
FF80
C010
1000
ENDCHAR
STARTCHAR  201C
ENCODING  8220
SWIDTH  1000 0
DWIDTH  6 0
BBX  5 4 1 8
BITMAP
0010000010
4080004080
F0A000F0A0
FFA000FFA0
ENDCHAR
STARTCHAR  201D
ENCODING  8221
SWIDTH  1000 0
DWIDTH  7 0
BBX  5 4 1 7
BITMAP
FFA000FFA0
FF8000FF80
C01000C010
1000001000
ENDCHAR
STARTCHAR  2026
ENCODING  8230
SWIDTH  1000 0
DWIDTH  9 0
BBX  7 2 1 0
BITMAP
A06000A06060A0
FFA000FFA0A0FF
ENDCHAR
STARTCHAR  2030
ENCODING  8240
SWIDTH  1000 0
DWIDTH  15 0
BBX  13 11 1 0
BITMAP
80F0E0300040C0000000000000
FFE0FF8000A060000000000000
FFA0FFA010E000000000000000
FFA0FFA0608000000000000000
FFE0FF80E02000000000000000
80F0E060C080F0E03030E0F080
000000A060FFA0FF8080FFA0F0
000010E000FFA0FFA0A0FFA0FF
0000608000FFA0FFA0A0FFA0FF
0000C02000FFE0FF8080FFE0F0
0030C0000080F0E03030E0F080
ENDCHAR
ENDFONT
